<svg xmlns="http://www.w3.org/2000/svg" xmlns:xlink="http://www.w3.org/1999/xlink" width="160" zoomAndPan="magnify" viewBox="0 0 120 30.000001" height="40" preserveAspectRatio="xMidYMid meet" version="1.0"><defs><g/><clipPath id="10986f25c5"><path d="M 56.371094 10.886719 L 81.917969 10.886719 L 81.917969 14.515625 L 56.371094 14.515625 Z M 56.371094 10.886719 " clip-rule="nonzero"/></clipPath></defs><g fill="#000000" fill-opacity="1"><g transform="translate(2.786036, 23.79042)"><g><path d="M 0.8125 -10.328125 C 0.8125 -11.992188 1.050781 -13.488281 1.53125 -14.8125 C 2.019531 -16.132812 2.679688 -17.253906 3.515625 -18.171875 C 4.359375 -19.097656 5.320312 -19.800781 6.40625 -20.28125 C 7.5 -20.757812 8.65625 -21 9.875 -21 C 10.375 -21 10.796875 -20.976562 11.140625 -20.9375 C 11.492188 -20.90625 11.828125 -20.867188 12.140625 -20.828125 C 12.453125 -20.785156 12.785156 -20.742188 13.140625 -20.703125 C 13.503906 -20.671875 13.925781 -20.65625 14.40625 -20.65625 C 14.59375 -20.65625 14.789062 -20.679688 15 -20.734375 C 15.207031 -20.796875 15.359375 -20.882812 15.453125 -21 L 15.640625 -21 L 15.640625 -14.421875 L 15.453125 -14.421875 C 15.398438 -14.921875 15.285156 -15.453125 15.109375 -16.015625 C 14.929688 -16.578125 14.703125 -17.128906 14.421875 -17.671875 C 14.148438 -18.210938 13.820312 -18.707031 13.4375 -19.15625 C 13.0625 -19.601562 12.632812 -19.957031 12.15625 -20.21875 C 11.6875 -20.488281 11.175781 -20.625 10.625 -20.625 C 9.914062 -20.625 9.320312 -20.335938 8.84375 -19.765625 C 8.363281 -19.191406 7.972656 -18.414062 7.671875 -17.4375 C 7.367188 -16.457031 7.144531 -15.351562 7 -14.125 C 6.863281 -12.894531 6.796875 -11.625 6.796875 -10.3125 C 6.796875 -9.269531 6.835938 -8.25 6.921875 -7.25 C 7.003906 -6.25 7.140625 -5.3125 7.328125 -4.4375 C 7.515625 -3.5625 7.757812 -2.789062 8.0625 -2.125 C 8.363281 -1.457031 8.722656 -0.9375 9.140625 -0.5625 C 9.566406 -0.1875 10.0625 0 10.625 0 C 11.082031 0 11.507812 -0.144531 11.90625 -0.4375 C 12.300781 -0.726562 12.664062 -1.113281 13 -1.59375 C 13.332031 -2.070312 13.628906 -2.601562 13.890625 -3.1875 C 14.160156 -3.769531 14.398438 -4.347656 14.609375 -4.921875 C 14.816406 -5.503906 14.988281 -6.039062 15.125 -6.53125 C 15.257812 -7.03125 15.367188 -7.425781 15.453125 -7.71875 L 15.640625 -7.71875 L 15.640625 -1.140625 C 15.640625 -1.140625 15.53125 -1.0625 15.3125 -0.90625 C 15.09375 -0.757812 14.753906 -0.585938 14.296875 -0.390625 C 13.835938 -0.203125 13.242188 -0.0351562 12.515625 0.109375 C 11.785156 0.265625 10.90625 0.34375 9.875 0.34375 C 8.65625 0.34375 7.5 0.101562 6.40625 -0.375 C 5.320312 -0.863281 4.359375 -1.566406 3.515625 -2.484375 C 2.679688 -3.398438 2.019531 -4.519531 1.53125 -5.84375 C 1.050781 -7.164062 0.8125 -8.660156 0.8125 -10.328125 Z M 0.8125 -10.328125 "/></g></g></g><g fill="#000000" fill-opacity="1"><g transform="translate(19.241318, 23.79042)"><g><path d="M 0.453125 -20.65625 L 8.609375 -20.65625 L 8.609375 -20.484375 C 8.179688 -20.367188 7.878906 -20.113281 7.703125 -19.71875 C 7.523438 -19.332031 7.4375 -18.800781 7.4375 -18.125 L 7.4375 -0.359375 L 8.484375 -0.359375 C 9.191406 -0.359375 9.859375 -0.5 10.484375 -0.78125 C 11.117188 -1.0625 11.6875 -1.421875 12.1875 -1.859375 C 12.695312 -2.296875 13.140625 -2.78125 13.515625 -3.3125 C 13.890625 -3.84375 14.175781 -4.363281 14.375 -4.875 C 14.582031 -5.382812 14.6875 -5.835938 14.6875 -6.234375 L 14.859375 -6.234375 L 14.859375 0 L 0.453125 0 L 0.453125 -0.1875 C 0.878906 -0.289062 1.179688 -0.539062 1.359375 -0.9375 C 1.535156 -1.34375 1.625 -1.875 1.625 -2.53125 L 1.625 -18.125 C 1.625 -18.800781 1.535156 -19.332031 1.359375 -19.71875 C 1.179688 -20.113281 0.878906 -20.367188 0.453125 -20.484375 Z M 0.453125 -20.65625 "/></g></g></g><g fill="#000000" fill-opacity="1"><g transform="translate(34.554886, 23.79042)"><g><path d="M 0.8125 -10.328125 C 0.8125 -11.992188 1.003906 -13.488281 1.390625 -14.8125 C 1.773438 -16.132812 2.320312 -17.253906 3.03125 -18.171875 C 3.75 -19.097656 4.59375 -19.800781 5.5625 -20.28125 C 6.539062 -20.757812 7.609375 -21 8.765625 -21 C 9.929688 -21 11 -20.757812 11.96875 -20.28125 C 12.945312 -19.800781 13.789062 -19.097656 14.5 -18.171875 C 15.207031 -17.253906 15.753906 -16.132812 16.140625 -14.8125 C 16.535156 -13.488281 16.734375 -11.992188 16.734375 -10.328125 C 16.734375 -8.097656 16.394531 -6.179688 15.71875 -4.578125 C 15.039062 -2.984375 14.101562 -1.765625 12.90625 -0.921875 C 11.707031 -0.078125 10.328125 0.34375 8.765625 0.34375 C 7.222656 0.34375 5.847656 -0.078125 4.640625 -0.921875 C 3.441406 -1.765625 2.503906 -2.984375 1.828125 -4.578125 C 1.148438 -6.179688 0.8125 -8.097656 0.8125 -10.328125 Z M 6.796875 -10.3125 C 6.796875 -9.257812 6.800781 -8.234375 6.8125 -7.234375 C 6.820312 -6.234375 6.859375 -5.289062 6.921875 -4.40625 C 6.984375 -3.53125 7.082031 -2.765625 7.21875 -2.109375 C 7.363281 -1.453125 7.554688 -0.9375 7.796875 -0.5625 C 8.046875 -0.1875 8.367188 0 8.765625 0 C 9.171875 0 9.492188 -0.1875 9.734375 -0.5625 C 9.984375 -0.9375 10.175781 -1.453125 10.3125 -2.109375 C 10.457031 -2.765625 10.5625 -3.53125 10.625 -4.40625 C 10.6875 -5.289062 10.722656 -6.234375 10.734375 -7.234375 C 10.742188 -8.234375 10.75 -9.257812 10.75 -10.3125 C 10.75 -11.363281 10.742188 -12.394531 10.734375 -13.40625 C 10.722656 -14.414062 10.6875 -15.359375 10.625 -16.234375 C 10.5625 -17.109375 10.457031 -17.875 10.3125 -18.53125 C 10.175781 -19.195312 9.984375 -19.71875 9.734375 -20.09375 C 9.484375 -20.46875 9.160156 -20.65625 8.765625 -20.65625 C 8.378906 -20.65625 8.0625 -20.46875 7.8125 -20.09375 C 7.5625 -19.71875 7.363281 -19.195312 7.21875 -18.53125 C 7.082031 -17.875 6.984375 -17.109375 6.921875 -16.234375 C 6.859375 -15.359375 6.820312 -14.414062 6.8125 -13.40625 C 6.800781 -12.394531 6.796875 -11.363281 6.796875 -10.3125 Z M 6.796875 -10.3125 "/></g></g></g><g fill="#000000" fill-opacity="1"><g transform="translate(52.097527, 23.79042)"><g><path d="M 0.453125 0 L 0.453125 -0.1875 L 10 -20.296875 L 7.484375 -20.296875 C 6.773438 -20.296875 6.101562 -20.15625 5.46875 -19.875 C 4.84375 -19.601562 4.273438 -19.242188 3.765625 -18.796875 C 3.265625 -18.359375 2.828125 -17.875 2.453125 -17.34375 C 2.078125 -16.8125 1.785156 -16.289062 1.578125 -15.78125 C 1.378906 -15.28125 1.28125 -14.828125 1.28125 -14.421875 L 1.109375 -14.421875 L 1.109375 -20.65625 L 16.078125 -20.65625 L 16.078125 -20.484375 L 6.53125 -0.359375 L 9.640625 -0.359375 C 10.359375 -0.359375 11.03125 -0.5 11.65625 -0.78125 C 12.28125 -1.0625 12.847656 -1.421875 13.359375 -1.859375 C 13.867188 -2.296875 14.3125 -2.78125 14.6875 -3.3125 C 15.0625 -3.84375 15.347656 -4.363281 15.546875 -4.875 C 15.742188 -5.382812 15.84375 -5.835938 15.84375 -6.234375 L 16.015625 -6.234375 L 16.015625 0 Z M 0.453125 0 "/></g></g></g><g fill="#000000" fill-opacity="1"><g transform="translate(68.625306, 23.79042)"><g><path d="M 0.453125 0 L 0.453125 -0.1875 L 10 -20.296875 L 7.484375 -20.296875 C 6.773438 -20.296875 6.101562 -20.15625 5.46875 -19.875 C 4.84375 -19.601562 4.273438 -19.242188 3.765625 -18.796875 C 3.265625 -18.359375 2.828125 -17.875 2.453125 -17.34375 C 2.078125 -16.8125 1.785156 -16.289062 1.578125 -15.78125 C 1.378906 -15.28125 1.28125 -14.828125 1.28125 -14.421875 L 1.109375 -14.421875 L 1.109375 -20.65625 L 16.078125 -20.65625 L 16.078125 -20.484375 L 6.53125 -0.359375 L 9.640625 -0.359375 C 10.359375 -0.359375 11.03125 -0.5 11.65625 -0.78125 C 12.28125 -1.0625 12.847656 -1.421875 13.359375 -1.859375 C 13.867188 -2.296875 14.3125 -2.78125 14.6875 -3.3125 C 15.0625 -3.84375 15.347656 -4.363281 15.546875 -4.875 C 15.742188 -5.382812 15.84375 -5.835938 15.84375 -6.234375 L 16.015625 -6.234375 L 16.015625 0 Z M 0.453125 0 "/></g></g></g><g fill="#000000" fill-opacity="1"><g transform="translate(85.153084, 23.79042)"><g><path d="M 14.984375 0 L 0.453125 0 L 0.453125 -0.1875 C 0.878906 -0.289062 1.179688 -0.539062 1.359375 -0.9375 C 1.535156 -1.34375 1.625 -1.875 1.625 -2.53125 L 1.625 -18.125 C 1.625 -18.800781 1.535156 -19.332031 1.359375 -19.71875 C 1.179688 -20.113281 0.878906 -20.367188 0.453125 -20.484375 L 0.453125 -20.65625 L 14.984375 -20.65625 L 14.984375 -14.421875 L 14.8125 -14.421875 C 14.8125 -14.828125 14.707031 -15.28125 14.5 -15.78125 C 14.300781 -16.289062 14.015625 -16.8125 13.640625 -17.34375 C 13.273438 -17.875 12.835938 -18.359375 12.328125 -18.796875 C 11.816406 -19.242188 11.242188 -19.601562 10.609375 -19.875 C 9.984375 -20.15625 9.316406 -20.296875 8.609375 -20.296875 L 7.4375 -20.296875 L 7.4375 -11.21875 L 8.140625 -11.21875 C 8.585938 -11.21875 9.039062 -11.3125 9.5 -11.5 C 9.96875 -11.6875 10.40625 -11.925781 10.8125 -12.21875 C 11.21875 -12.519531 11.554688 -12.847656 11.828125 -13.203125 C 12.097656 -13.566406 12.265625 -13.921875 12.328125 -14.265625 L 12.5 -14.265625 L 12.5 -7.8125 L 12.328125 -7.8125 C 12.265625 -8.164062 12.097656 -8.519531 11.828125 -8.875 C 11.554688 -9.226562 11.21875 -9.550781 10.8125 -9.84375 C 10.40625 -10.144531 9.96875 -10.390625 9.5 -10.578125 C 9.039062 -10.765625 8.585938 -10.859375 8.140625 -10.859375 L 7.4375 -10.859375 L 7.4375 -0.359375 L 8.609375 -0.359375 C 9.316406 -0.359375 9.984375 -0.5 10.609375 -0.78125 C 11.242188 -1.0625 11.816406 -1.421875 12.328125 -1.859375 C 12.835938 -2.296875 13.273438 -2.78125 13.640625 -3.3125 C 14.015625 -3.84375 14.300781 -4.363281 14.5 -4.875 C 14.707031 -5.382812 14.8125 -5.835938 14.8125 -6.234375 L 14.984375 -6.234375 Z M 14.984375 0 "/></g></g></g><g fill="#000000" fill-opacity="1"><g transform="translate(100.593504, 23.79042)"><g><path d="M 0.453125 -13.6875 L 0.453125 -20.65625 L 16.15625 -20.65625 L 16.15625 -13.6875 L 15.96875 -13.6875 C 15.96875 -14.207031 15.882812 -14.765625 15.71875 -15.359375 C 15.5625 -15.960938 15.332031 -16.554688 15.03125 -17.140625 C 14.738281 -17.722656 14.394531 -18.253906 14 -18.734375 C 13.601562 -19.210938 13.175781 -19.59375 12.71875 -19.875 C 12.257812 -20.15625 11.785156 -20.296875 11.296875 -20.296875 L 11.109375 -20.296875 L 11.109375 -2.53125 C 11.109375 -1.875 11.195312 -1.34375 11.375 -0.9375 C 11.5625 -0.539062 11.863281 -0.289062 12.28125 -0.1875 L 12.28125 0 L 4.125 0 L 4.125 -0.1875 C 4.550781 -0.289062 4.851562 -0.539062 5.03125 -0.9375 C 5.21875 -1.34375 5.3125 -1.875 5.3125 -2.53125 L 5.3125 -20.296875 C 4.820312 -20.296875 4.34375 -20.15625 3.875 -19.875 C 3.414062 -19.59375 2.988281 -19.210938 2.59375 -18.734375 C 2.207031 -18.253906 1.863281 -17.722656 1.5625 -17.140625 C 1.269531 -16.554688 1.039062 -15.960938 0.875 -15.359375 C 0.71875 -14.765625 0.640625 -14.207031 0.640625 -13.6875 Z M 0.453125 -13.6875 "/></g></g></g><g clip-path="url(#10986f25c5)"><path fill="#ffffff" d="M 56.371094 10.886719 L 81.914062 10.886719 L 81.914062 14.515625 L 56.371094 14.515625 Z M 56.371094 10.886719 " fill-opacity="1" fill-rule="nonzero"/></g></svg>